<svg xmlns="http://www.w3.org/2000/svg" viewBox="0 0 78 14"><path fill="#FFF" fill-rule="nonzero" d="M10.12 12.72c1.03-.56 1.89-1.35 2.58-2.38l-1.65-1.11c-1.06 1.56-2.46 2.34-4.2 2.34-1.36 0-2.51-.46-3.45-1.38C2.46 9.27 2 8.14 2 6.8c0-1.34.47-2.47 1.41-3.4.94-.93 2.09-1.39 3.44-1.39 1.47 0 2.75.62 3.85 1.86l1.52-1.3C10.71.87 8.92.02 6.85.02c-1.87 0-3.48.67-4.83 2.01C.67 3.37 0 4.96 0 6.8c0 1.84.68 3.43 2.02 4.77 1.35 1.33 2.96 2 4.83 2 1.15 0 2.24-.28 3.27-.84v-.01Zm15.25-1.16c1.35-1.33 2.02-2.92 2.02-4.77 0-1.85-.68-3.44-2.03-4.77C24 .68 22.39.01 20.52.01c-1.87 0-3.48.67-4.83 2.01-1.35 1.34-2.02 2.93-2.02 4.77 0 1.84.67 3.43 2.02 4.77 1.35 1.33 2.96 2 4.83 2s3.5-.66 4.85-2Zm-9.7-4.77c0-1.34.47-2.47 1.41-3.4.94-.93 2.09-1.39 3.44-1.39s2.51.46 3.46 1.39c.94.93 1.41 2.06 1.41 3.4 0 1.34-.47 2.47-1.41 3.39-.94.92-2.09 1.38-3.46 1.38s-2.51-.46-3.45-1.38c-.93-.92-1.4-2.05-1.4-3.39ZM36.73.01h-2.01v8.32L31.43.01h-2.19v13.54h2.01V5.29l3.27 8.28h2.21V.01Zm6.59 2.01h2.73V.01h-7.47v2.01h2.73v11.53h2.01V2.02ZM51.59.01h-2.04l-3.57 13.54h2.06l1.13-4.38h2.79l1.13 4.38h2.06L51.58.01h.01Zm-1.88 7.13.85-3.23.86 3.23h-1.71Zm16.53 5.57c1.03-.56 1.89-1.35 2.58-2.38l-1.65-1.11c-1.07 1.56-2.46 2.34-4.2 2.34-1.36 0-2.51-.46-3.45-1.38-.94-.92-1.4-2.05-1.4-3.39 0-1.34.47-2.47 1.41-3.4.94-.93 2.09-1.39 3.44-1.39 1.47 0 2.76.62 3.84 1.86l1.52-1.3C66.82.86 65.03.01 62.96.01c-1.87 0-3.48.67-4.83 2.01-1.35 1.34-2.02 2.93-2.02 4.77 0 1.84.67 3.43 2.02 4.77 1.35 1.33 2.96 2 4.83 2 1.15 0 2.24-.28 3.27-.84l.01-.01Zm8.29-10.7h2.73V0h-7.47v2.01h2.73v11.53h2.01V2.01Z"/></svg>