<svg xmlns="http://www.w3.org/2000/svg" viewBox="0 0 89 14"><path fill="#FFF" fill-rule="nonzero" d="M2.48.01H.47v13.54h2.01V.01Zm9.34 0H9.81v8.32L6.52.01H4.33v13.54h2.01V5.29l3.27 8.28h2.21V.01Zm9.1 12.32c.85-.82 1.28-1.86 1.28-3.12 0-.74-.11-1.38-.32-1.91-.22-.53-.5-.94-.85-1.22s-.74-.5-1.17-.68c-.43-.17-.85-.31-1.27-.4-.42-.09-.81-.19-1.16-.3-.35-.1-.64-.25-.85-.44-.22-.19-.33-.45-.33-.77 0-.48.15-.85.44-1.1.3-.25.71-.37 1.23-.37.4 0 .74.09 1.02.28.28.19.43.5.43.93h2.01c0-.98-.34-1.76-1.02-2.34-.68-.58-1.49-.87-2.43-.87-1.02 0-1.88.32-2.6.97-.72.64-1.08 1.48-1.08 2.51 0 .64.11 1.19.33 1.63.22.45.5.78.85.99.35.22.74.39 1.17.53.43.14.85.26 1.27.36.42.11.81.23 1.16.37.35.14.64.37.85.67.22.3.33.69.33 1.16 0 .78-.23 1.37-.68 1.76-.45.4-.99.59-1.62.59-.68 0-1.22-.23-1.62-.69-.4-.46-.59-1.16-.59-2.1h-2.01c0 1.46.41 2.62 1.23 3.48.82.86 1.81 1.29 2.99 1.29 1.18 0 2.17-.41 3.03-1.23l-.02.02Zm7.06-10.31h2.73V.01h-7.47v2.01h2.73v11.53h2.01V2.02ZM36.25.01h-2.04l-3.57 13.54h2.06l1.13-4.38h2.79l1.13 4.38h2.06L36.24.01h.01Zm-1.88 7.13.85-3.23.85 3.23h-1.71.01Zm18.11 4.41c1.35-1.33 2.02-2.92 2.02-4.77V5.8h-5.72v1.99h3.62c-.15 1.04-.68 1.93-1.59 2.67s-1.97 1.1-3.19 1.1c-1.36 0-2.51-.46-3.45-1.38-.94-.92-1.4-2.05-1.4-3.39 0-1.34.47-2.47 1.41-3.4.94-.93 2.09-1.39 3.44-1.39s2.51.52 3.59 1.56l1.41-1.43C51.16.72 49.49.01 47.62.01s-3.48.67-4.83 2.01c-1.35 1.34-2.03 2.93-2.03 4.77 0 1.84.67 3.43 2.03 4.77 1.35 1.33 2.96 2 4.83 2s3.5-.66 4.85-2l.01-.01ZM63.22 10c-.42-1.16-.95-2.01-1.61-2.54.56-.17 1.07-.6 1.53-1.29.46-.69.7-1.44.7-2.26 0-1.05-.38-1.97-1.15-2.74C61.92.4 61.01.01 59.96.01h-3.6v13.54h2.01V7.96c.81.1 1.48.47 2.03 1.11.55.64.93 1.35 1.13 2.12.2.77.31 1.55.31 2.36h2.01c0-1.2-.21-2.38-.62-3.55h-.01Zm-4.86-4.22V2.01h1.6c.53 0 .98.18 1.34.54.36.36.54.81.54 1.36s-.18.99-.54 1.35c-.36.35-.81.53-1.34.53h-1.6v-.01ZM71.23 0h-2.04l-3.57 13.54h2.06l1.13-4.38h2.79l1.13 4.38h2.06L71.22 0h.01Zm-1.88 7.13.85-3.23.85 3.23h-1.71.01ZM88.11 0h-1.99l-3.75 10.35L78.64 0h-1.99v13.54h2.01V5.96l2.75 7.58h1.95l2.75-7.58v7.58h2.01V0h-.01Z"/></svg>