<?xml version="1.0" encoding="UTF-8"?>
<svg width="393px" height="186px" viewBox="0 0 393 186" version="1.1" xmlns="http://www.w3.org/2000/svg" xmlns:xlink="http://www.w3.org/1999/xlink">
    <title>MES LOGO BLOK</title>
    <g id="Page-1" stroke="none" stroke-width="1" fill="none" fill-rule="evenodd">
        <g id="MES-LOGO-BLOK" fill="#FFFFFF" fill-rule="nonzero">
            <path d="M142.21,177.3 L144.37,177.3 C145.79,177.3 147.03,176.78 148.07,175.74 C149.11,174.7 149.63,173.47 149.63,172.04 C149.63,170.61 149.11,169.38 148.07,168.33 C147.03,167.28 145.8,166.76 144.37,166.76 L139.49,166.76 L139.49,185.1 L142.21,185.1 L142.21,177.3 L142.21,177.3 Z M142.21,174.58 L142.21,169.47 L144.37,169.47 C145.09,169.47 145.7,169.71 146.18,170.2 C146.67,170.69 146.91,171.3 146.91,172.04 C146.91,172.78 146.67,173.39 146.18,173.86 C145.69,174.34 145.09,174.58 144.37,174.58 L142.21,174.58 L142.21,174.58 Z M162.07,180.29 C161.51,178.71 160.78,177.56 159.89,176.84 C160.65,176.61 161.34,176.02 161.97,175.09 C162.6,174.16 162.91,173.14 162.91,172.03 C162.91,170.6 162.39,169.37 161.35,168.32 C160.31,167.27 159.08,166.75 157.65,166.75 L152.77,166.75 L152.77,185.09 L155.49,185.09 L155.49,177.52 C156.58,177.65 157.5,178.16 158.25,179.03 C159,179.9 159.51,180.86 159.78,181.9 C160.06,182.94 160.2,184.01 160.2,185.1 L162.92,185.1 C162.92,183.47 162.64,181.87 162.08,180.3 L162.08,180.3 L162.07,180.29 Z M155.49,174.58 L155.49,169.47 L157.65,169.47 C158.37,169.47 158.98,169.71 159.46,170.2 C159.95,170.69 160.19,171.3 160.19,172.04 C160.19,172.78 159.95,173.39 159.46,173.86 C158.97,174.34 158.37,174.58 157.65,174.58 L155.49,174.58 L155.49,174.58 Z M181.21,182.39 C183.04,180.59 183.95,178.44 183.95,175.94 C183.95,173.44 183.03,171.29 181.2,169.47 C179.36,167.66 177.18,166.75 174.65,166.75 C172.12,166.75 169.94,167.66 168.11,169.47 C166.28,171.28 165.37,173.44 165.37,175.94 C165.37,178.44 166.28,180.59 168.11,182.39 C169.94,184.19 172.12,185.09 174.65,185.09 C177.18,185.09 179.39,184.19 181.22,182.39 L181.22,182.39 L181.21,182.39 Z M168.08,175.94 C168.08,174.13 168.72,172.59 169.99,171.34 C171.26,170.08 172.82,169.45 174.65,169.45 C176.48,169.45 178.05,170.08 179.33,171.34 C180.6,172.6 181.24,174.13 181.24,175.94 C181.24,177.75 180.6,179.28 179.33,180.53 C178.06,181.78 176.5,182.4 174.65,182.4 C172.8,182.4 171.25,181.78 169.98,180.53 C168.71,179.28 168.08,177.75 168.08,175.94 L168.08,175.94 Z M198.22,166.76 L195.43,166.76 L192.01,179.67 L188.59,166.76 L185.8,166.76 L190.63,185.1 L193.4,185.1 L198.23,166.76 L198.23,166.76 L198.22,166.76 Z M210.52,182.39 L204.08,182.39 L204.08,177.26 L208.79,177.26 L208.79,174.54 L204.08,174.54 L204.08,169.48 L210.52,169.48 L210.52,166.76 L201.36,166.76 L201.36,185.1 L210.52,185.1 L210.52,182.38 L210.52,182.38 L210.52,182.39 Z M223.8,166.76 L221.08,166.76 L221.08,178.03 L216.63,166.76 L213.66,166.76 L213.66,185.1 L216.38,185.1 L216.38,173.9 L220.81,185.12 L223.8,185.12 L223.8,166.75 L223.8,166.75 L223.8,166.76 Z M240.66,183.97 C242.05,183.21 243.22,182.14 244.16,180.75 L241.92,179.24 C240.48,181.35 238.58,182.41 236.23,182.41 C234.38,182.41 232.83,181.79 231.56,180.54 C230.29,179.29 229.66,177.76 229.66,175.95 C229.66,174.14 230.3,172.6 231.57,171.35 C232.84,170.09 234.4,169.46 236.23,169.46 C238.23,169.46 239.96,170.3 241.44,171.98 L243.5,170.22 C241.45,167.92 239.03,166.77 236.23,166.77 C233.7,166.77 231.52,167.68 229.69,169.49 C227.86,171.3 226.95,173.46 226.95,175.96 C226.95,178.46 227.86,180.61 229.69,182.41 C231.52,184.21 233.7,185.11 236.23,185.11 C237.79,185.11 239.26,184.73 240.66,183.98 L240.66,183.98 L240.66,183.97 Z M256.46,182.39 L250.02,182.39 L250.02,177.26 L254.73,177.26 L254.73,174.54 L250.02,174.54 L250.02,169.48 L256.46,169.48 L256.46,166.76 L247.3,166.76 L247.3,185.1 L256.46,185.1 L256.46,182.38 L256.46,182.38 L256.46,182.39 Z" id="Shape"></path>
            <path d="M92.44,130.58 L88.85,130.58 L82.07,149.27 L75.33,130.58 L71.74,130.58 L71.74,155.04 L75.36,155.04 L75.36,141.35 L80.32,155.04 L83.84,155.04 L88.8,141.35 L88.8,155.04 L92.42,155.04 L92.42,130.58 L92.42,130.58 L92.44,130.58 Z M106.63,130.58 L102.94,130.58 L96.5,155.04 L100.22,155.04 L102.27,147.12 L107.3,147.12 L109.35,155.04 L113.07,155.04 L106.63,130.58 L106.63,130.58 Z M103.24,143.46 L104.78,137.62 L106.32,143.46 L103.23,143.46 L103.24,143.46 Z M120.89,130.58 L117.27,130.58 L117.27,155.04 L120.89,155.04 L120.89,130.58 L120.89,130.58 Z M138.17,152.82 C139.71,151.34 140.49,149.46 140.49,147.18 C140.49,145.84 140.29,144.69 139.9,143.72 C139.51,142.76 138.99,142.03 138.36,141.52 C137.72,141.02 137.02,140.61 136.25,140.29 C135.48,139.98 134.71,139.74 133.95,139.57 C133.19,139.4 132.49,139.22 131.85,139.03 C131.21,138.84 130.7,138.57 130.31,138.22 C129.92,137.87 129.72,137.41 129.72,136.83 C129.72,135.96 129.99,135.3 130.53,134.85 C131.07,134.4 131.8,134.18 132.74,134.18 C133.46,134.18 134.07,134.35 134.58,134.68 C135.09,135.01 135.35,135.57 135.35,136.36 L138.97,136.36 C138.97,134.59 138.35,133.18 137.12,132.13 C135.89,131.08 134.42,130.55 132.73,130.55 C130.9,130.55 129.33,131.13 128.03,132.29 C126.73,133.45 126.08,134.96 126.08,136.82 C126.08,137.98 126.28,138.97 126.67,139.77 C127.06,140.57 127.58,141.17 128.21,141.57 C128.85,141.96 129.55,142.28 130.32,142.53 C131.09,142.78 131.86,142.99 132.62,143.18 C133.38,143.37 134.08,143.59 134.72,143.85 C135.36,144.11 135.87,144.51 136.26,145.06 C136.65,145.61 136.85,146.31 136.85,147.16 C136.85,148.57 136.44,149.63 135.63,150.35 C134.81,151.07 133.83,151.42 132.69,151.42 C131.46,151.42 130.49,151.01 129.77,150.18 C129.05,149.35 128.7,148.09 128.7,146.39 L125.08,146.39 C125.08,149.03 125.82,151.13 127.29,152.68 C128.77,154.24 130.57,155.01 132.69,155.01 C134.81,155.01 136.61,154.27 138.16,152.8 L138.16,152.8 L138.17,152.82 Z M165.01,151.43 C167.45,149.03 168.67,146.16 168.67,142.83 C168.67,139.5 167.45,136.62 165,134.21 C162.55,131.79 159.64,130.59 156.26,130.59 C152.88,130.59 149.97,131.8 147.54,134.21 C145.1,136.62 143.88,139.5 143.88,142.83 C143.88,146.16 145.1,149.03 147.54,151.43 C149.98,153.83 152.89,155.04 156.26,155.04 C159.63,155.04 162.58,153.84 165.02,151.43 L165.02,151.43 L165.01,151.43 Z M147.5,142.83 C147.5,140.41 148.35,138.37 150.05,136.69 C151.75,135.01 153.82,134.17 156.26,134.17 C158.7,134.17 160.8,135.01 162.5,136.69 C164.2,138.37 165.05,140.41 165.05,142.83 C165.05,145.25 164.2,147.29 162.5,148.95 C160.8,150.62 158.72,151.45 156.26,151.45 C153.8,151.45 151.72,150.62 150.04,148.95 C148.35,147.28 147.51,145.24 147.51,142.83 L147.51,142.83 L147.5,142.83 Z M186.38,130.58 L182.76,130.58 L182.76,145.61 L176.82,130.58 L172.86,130.58 L172.86,155.04 L176.48,155.04 L176.48,140.11 L182.38,155.07 L186.37,155.07 L186.37,130.58 L186.37,130.58 L186.38,130.58 Z M214.33,152.7 C215.9,151.15 216.68,149.28 216.68,147.12 L216.68,138.5 C216.68,136.35 215.9,134.5 214.33,132.93 C212.76,131.36 210.91,130.58 208.76,130.58 L203.16,130.58 L203.16,155.04 L208.76,155.04 C210.91,155.04 212.76,154.26 214.33,152.71 L214.33,152.71 L214.33,152.7 Z M206.78,151.41 L206.78,134.2 L208.76,134.2 C209.99,134.2 211.01,134.61 211.83,135.44 C212.65,136.27 213.05,137.29 213.05,138.49 L213.05,147.11 C213.05,148.34 212.64,149.36 211.83,150.18 C211.01,151 209.99,151.4 208.76,151.4 L206.78,151.4 L206.78,151.41 Z M223.35,136.35 C224.29,135.37 224.76,133.42 224.76,130.51 L221.14,130.51 L221.14,134.07 L222.35,134.07 C222.22,134.79 221.61,135.14 220.54,135.14 L221.65,137.19 C222.41,137.01 222.98,136.73 223.36,136.35 L223.36,136.35 L223.35,136.35 Z M242.47,130.58 L238.85,130.58 L238.85,140.98 L232.58,140.98 L232.58,130.58 L228.96,130.58 L228.96,155.04 L232.58,155.04 L232.58,144.61 L238.85,144.61 L238.85,155.04 L242.47,155.04 L242.47,130.58 L242.47,130.58 Z M259.68,125.21 L257.5,125.21 L252.9,129.81 L257.13,129.81 L258.61,128.33 L260.05,129.81 L264.24,129.81 L259.68,125.21 L259.68,125.21 Z M267.83,151.43 C270.27,149.03 271.49,146.16 271.49,142.83 C271.49,139.5 270.27,136.62 267.82,134.21 C265.37,131.79 262.46,130.59 259.08,130.59 C255.7,130.59 252.8,131.8 250.36,134.21 C247.92,136.62 246.7,139.5 246.7,142.83 C246.7,146.16 247.92,149.03 250.36,151.43 C252.8,153.83 255.71,155.04 259.08,155.04 C262.45,155.04 265.4,153.84 267.84,151.43 L267.84,151.43 L267.83,151.43 Z M250.32,142.83 C250.32,140.41 251.17,138.37 252.87,136.69 C254.57,135.01 256.64,134.17 259.08,134.17 C261.52,134.17 263.62,135.01 265.32,136.69 C267.02,138.37 267.87,140.41 267.87,142.83 C267.87,145.25 267.02,147.29 265.32,148.95 C263.62,150.62 261.54,151.45 259.08,151.45 C256.62,151.45 254.55,150.62 252.86,148.95 C251.17,147.28 250.33,145.24 250.33,142.83 L250.33,142.83 L250.32,142.83 Z M282.63,134.21 L287.56,134.21 L287.56,130.59 L274.07,130.59 L274.07,134.21 L279,134.21 L279,155.04 L282.62,155.04 L282.62,134.21 L282.62,134.21 L282.63,134.21 Z M303.97,151.42 L295.38,151.42 L295.38,144.58 L301.65,144.58 L301.65,140.96 L295.38,140.96 L295.38,134.22 L303.97,134.22 L303.97,130.6 L291.76,130.6 L291.76,155.06 L303.97,155.06 L303.97,151.44 L303.97,151.44 L303.97,151.42 Z M321.25,152.83 C322.79,151.35 323.56,149.47 323.56,147.19 C323.56,145.85 323.36,144.7 322.97,143.73 C322.58,142.77 322.06,142.04 321.43,141.53 C320.79,141.03 320.09,140.62 319.32,140.3 C318.55,139.99 317.78,139.75 317.02,139.58 C316.26,139.41 315.56,139.23 314.92,139.04 C314.28,138.85 313.77,138.58 313.38,138.23 C312.99,137.88 312.79,137.42 312.79,136.84 C312.79,135.97 313.06,135.31 313.59,134.86 C314.13,134.41 314.86,134.19 315.8,134.19 C316.52,134.19 317.13,134.36 317.65,134.69 C318.16,135.02 318.42,135.58 318.42,136.37 L322.04,136.37 C322.04,134.6 321.43,133.19 320.2,132.14 C318.97,131.09 317.5,130.56 315.8,130.56 C313.97,130.56 312.4,131.14 311.1,132.3 C309.8,133.46 309.15,134.97 309.15,136.83 C309.15,137.99 309.35,138.98 309.74,139.78 C310.13,140.58 310.65,141.18 311.28,141.58 C311.92,141.97 312.62,142.29 313.39,142.54 C314.16,142.79 314.93,143 315.69,143.19 C316.45,143.38 317.15,143.6 317.79,143.86 C318.43,144.12 318.94,144.52 319.33,145.07 C319.72,145.62 319.92,146.32 319.92,147.17 C319.92,148.58 319.51,149.64 318.69,150.36 C317.87,151.08 316.9,151.43 315.76,151.43 C314.53,151.43 313.56,151.02 312.84,150.19 C312.12,149.36 311.77,148.1 311.77,146.4 L308.15,146.4 C308.15,149.04 308.89,151.14 310.36,152.69 C311.84,154.25 313.64,155.02 315.76,155.02 C317.88,155.02 319.69,154.28 321.23,152.81 L321.23,152.81 L321.25,152.83 Z" id="Shape"></path>
            <path d="M44.34,13.15 L36.65,13.15 L22.13,53.18 L7.69,13.15 L0,13.15 L0,65.54 L7.76,65.54 L7.76,36.22 L18.4,65.54 L25.95,65.54 L36.59,36.22 L36.59,65.54 L44.35,65.54 L44.35,13.15 L44.35,13.15 L44.34,13.15 Z M72.94,13.15 L65.04,13.15 L51.24,65.54 L59.22,65.54 L63.6,48.58 L74.38,48.58 L78.76,65.54 L86.74,65.54 L72.94,13.15 L72.94,13.15 Z M65.68,40.74 L68.98,28.24 L72.29,40.74 L65.68,40.74 Z M119.93,60.79 C123.23,57.63 124.89,53.6 124.89,48.72 C124.89,45.85 124.47,43.38 123.63,41.32 C122.79,39.26 121.69,37.69 120.32,36.61 C118.95,35.53 117.45,34.66 115.79,33.99 C114.14,33.32 112.5,32.8 110.87,32.45 C109.24,32.09 107.74,31.71 106.38,31.3 C105.02,30.89 103.91,30.32 103.08,29.57 C102.24,28.83 101.82,27.83 101.82,26.59 C101.82,24.72 102.39,23.31 103.54,22.35 C104.69,21.39 106.27,20.91 108.28,20.91 C109.81,20.91 111.13,21.27 112.23,21.99 C113.33,22.71 113.88,23.91 113.88,25.58 L121.64,25.58 C121.64,21.8 120.32,18.78 117.69,16.53 C115.05,14.28 111.92,13.15 108.28,13.15 C104.35,13.15 101,14.4 98.22,16.89 C95.44,19.38 94.05,22.61 94.05,26.59 C94.05,29.08 94.47,31.19 95.31,32.91 C96.15,34.63 97.25,35.92 98.62,36.75 C99.99,37.59 101.49,38.27 103.15,38.8 C104.8,39.33 106.44,39.79 108.07,40.2 C109.7,40.61 111.2,41.09 112.56,41.64 C113.93,42.19 115.03,43.05 115.87,44.23 C116.71,45.4 117.13,46.9 117.13,48.72 C117.13,51.74 116.26,54.01 114.51,55.55 C112.76,57.08 110.67,57.85 108.22,57.85 C105.58,57.85 103.5,56.96 101.97,55.19 C100.44,53.42 99.67,50.71 99.67,47.07 L91.91,47.07 C91.91,52.72 93.49,57.21 96.65,60.54 C99.81,63.87 103.67,65.53 108.22,65.53 C112.77,65.53 116.63,63.95 119.93,60.79 L119.93,60.79 L119.93,60.79 Z M161.13,49.7 L150.09,49.7 L150.09,40.9 L158.15,40.9 L158.15,36.24 L150.09,36.24 L150.09,27.57 L161.13,27.57 L161.13,22.91 L145.44,22.91 L145.44,54.34 L161.13,54.34 L161.13,49.68 L161.13,49.68 L161.13,49.7 Z M182.82,22.92 L178.16,22.92 L178.16,42.24 L170.53,22.92 L165.44,22.92 L165.44,54.35 L170.1,54.35 L170.1,35.16 L177.69,54.39 L182.82,54.39 L182.82,22.91 L182.82,22.91 L182.82,22.92 Z M229.81,60.79 C233.12,57.63 234.77,53.6 234.77,48.72 C234.77,45.85 234.35,43.38 233.51,41.32 C232.67,39.26 231.57,37.69 230.2,36.61 C228.83,35.53 227.33,34.66 225.67,33.99 C224.01,33.32 222.38,32.8 220.75,32.45 C219.12,32.09 217.62,31.71 216.26,31.3 C214.89,30.89 213.79,30.32 212.95,29.57 C212.11,28.83 211.69,27.83 211.69,26.59 C211.69,24.72 212.27,23.31 213.41,22.35 C214.56,21.39 216.14,20.91 218.15,20.91 C219.68,20.91 221,21.27 222.1,21.99 C223.2,22.71 223.75,23.91 223.75,25.58 L231.51,25.58 C231.51,21.8 230.19,18.78 227.56,16.53 C224.92,14.28 221.79,13.15 218.15,13.15 C214.22,13.15 210.87,14.4 208.09,16.89 C205.31,19.38 203.92,22.61 203.92,26.59 C203.92,29.08 204.34,31.19 205.18,32.91 C206.02,34.63 207.12,35.92 208.49,36.75 C209.86,37.59 211.36,38.27 213.02,38.8 C214.67,39.33 216.31,39.79 217.94,40.2 C219.57,40.61 221.07,41.09 222.43,41.64 C223.79,42.19 224.9,43.05 225.73,44.23 C226.57,45.4 226.99,46.9 226.99,48.72 C226.99,51.74 226.11,54.01 224.37,55.55 C222.62,57.08 220.52,57.85 218.08,57.85 C215.44,57.85 213.36,56.96 211.83,55.19 C210.3,53.42 209.53,50.71 209.53,47.07 L201.77,47.07 C201.77,52.72 203.35,57.21 206.51,60.54 C209.67,63.87 213.53,65.53 218.08,65.53 C222.63,65.53 226.49,63.95 229.79,60.79 L229.79,60.79 L229.81,60.79 Z M279.39,62.3 C283.37,60.14 286.69,57.08 289.38,53.1 L282.98,48.79 C278.86,54.83 273.45,57.84 266.74,57.84 C261.47,57.84 257.03,56.06 253.41,52.49 C249.79,48.92 247.98,44.55 247.98,39.38 C247.98,34.21 249.8,29.82 253.44,26.23 C257.08,22.64 261.51,20.84 266.73,20.84 C272.43,20.84 277.39,23.24 281.61,28.03 L287.5,23 C281.65,16.44 274.73,13.16 266.73,13.16 C259.5,13.16 253.27,15.75 248.05,20.92 C242.83,26.09 240.22,32.25 240.22,39.39 C240.22,46.53 242.83,52.67 248.05,57.82 C253.27,62.97 259.5,65.55 266.73,65.55 C271.19,65.55 275.4,64.47 279.38,62.32 L279.38,62.32 L279.39,62.3 Z M309.08,0 L299.67,0 L308.15,11.5 L314.33,11.5 L309.08,0 L309.08,0 Z M322.73,57.78 L304.33,57.78 L304.33,43.12 L317.77,43.12 L317.77,35.36 L304.33,35.36 L304.33,20.92 L322.73,20.92 L322.73,13.16 L296.57,13.16 L296.57,65.55 L322.73,65.55 L322.73,57.79 L322.73,57.79 L322.73,57.78 Z M358.88,13.16 L351.12,13.16 L351.12,45.35 L338.4,13.16 L329.92,13.16 L329.92,65.55 L337.68,65.55 L337.68,33.57 L350.33,65.62 L358.88,65.62 L358.88,13.15 L358.88,13.15 L358.88,13.16 Z M392.22,57.78 L373.82,57.78 L373.82,43.12 L387.26,43.12 L387.26,35.36 L373.82,35.36 L373.82,20.92 L392.22,20.92 L392.22,13.16 L366.06,13.16 L366.06,65.55 L392.22,65.55 L392.22,57.79 L392.22,57.79 L392.22,57.78 Z" id="Shape"></path>
        </g>
    </g>
</svg>